<svg xmlns="http://www.w3.org/2000/svg" width="1080" height="1920" viewBox="0 0 1080 1920">
  <defs>
    <linearGradient id="gold" x1="0%" y1="0%" x2="100%" y2="100%">
      <stop offset="0%" stop-color="#f3deb0"/>
      <stop offset="35%" stop-color="#d7a94a"/>
      <stop offset="65%" stop-color="#8d5c1f"/>
      <stop offset="100%" stop-color="#f4e7be"/>
    </linearGradient>
    <linearGradient id="darkGold" x1="0%" y1="0%" x2="0%" y2="100%">
      <stop offset="0%" stop-color="#4b2d12"/>
      <stop offset="100%" stop-color="#211106"/>
    </linearGradient>
    <filter id="shadow" x="-20%" y="-20%" width="140%" height="140%">
      <feDropShadow dx="0" dy="6" stdDeviation="6" flood-color="#000000" flood-opacity="0.45"/>
    </filter>
    <g id="corner">
      <path d="M0 168V0h168" fill="none" stroke="url(#darkGold)" stroke-width="28" stroke-linecap="square"/>
      <path d="M18 150V18h150" fill="none" stroke="url(#gold)" stroke-width="10" stroke-linecap="square"/>
      <path d="M44 124V44h80" fill="none" stroke="url(#gold)" stroke-width="8" opacity="0.9"/>
      <path d="M44 124h32l16-16V76l16-16h32" fill="none" stroke="url(#gold)" stroke-width="8" opacity="0.85"/>
    </g>
    <g id="topBand">
      <rect x="0" y="0" width="1080" height="28" fill="url(#darkGold)" opacity="0.92"/>
      <rect x="0" y="30" width="1080" height="8" fill="url(#gold)" opacity="0.85"/>
      <g opacity="0.78">
        <path d="M32 14h54l18 12 18-12h54l18 12 18-12h54l18 12 18-12h54l18 12 18-12h54l18 12 18-12h54l18 12 18-12h54l18 12 18-12h54l18 12 18-12h54" fill="none" stroke="#f1ddb0" stroke-width="5"/>
      </g>
    </g>
  </defs>

  <rect x="9" y="9" width="1062" height="1902" rx="6" ry="6" fill="none" stroke="url(#darkGold)" stroke-width="18" opacity="0.95"/>
  <rect x="24" y="24" width="1032" height="1872" rx="4" ry="4" fill="none" stroke="url(#gold)" stroke-width="4" opacity="0.7"/>

  <g filter="url(#shadow)">
    <use href="#corner" x="0" y="0"/>
    <use href="#corner" x="1080" y="0" transform="scale(-1 1)"/>
    <use href="#corner" x="0" y="1920" transform="scale(1 -1)"/>
    <use href="#corner" x="1080" y="1920" transform="scale(-1 -1)"/>
  </g>

  <use href="#topBand" x="0" y="0"/>
  <use href="#topBand" x="0" y="1920" transform="scale(1 -1)"/>

  <g opacity="0.3">
    <path d="M102 180h876" stroke="url(#gold)" stroke-width="2"/>
    <path d="M102 1740h876" stroke="url(#gold)" stroke-width="2"/>
  </g>
</svg>
